<svg width="125.36457214355468px" height="122.01790771484374px" xmlns="http://www.w3.org/2000/svg" viewBox="187.31771392822264 13.991046142578128 125.36457214355468 122.01790771484374" style="background: rgba(0, 0, 0, 0);" preserveAspectRatio="xMidYMid"><defs><linearGradient id="editing-gradow-gradient" x1="0" x2="1" y1="0.5" y2="0.5" gradientUnits="objectBoundingBox"><stop offset="0" stop-color="#f0f"></stop><stop offset="1" stop-color="#0ff"></stop></linearGradient><filter id="editing-gradow-filter" x="-100%" y="-100%" width="300%" height="300%"><feFlood flood-color="#fffcd9" result="flood"></feFlood><feComposite operator="in" in2="SourceAlpha" in="flood" result="shadow"></feComposite><feOffset dx="-4" dy="-4" in="SourceGraphic" result="offset-1"></feOffset><feOffset dx="4" dy="4" in="shadow" result="offset-2"></feOffset><feMerge><feMergeNode in="offset-2"></feMergeNode><feMergeNode in="offset-1"></feMergeNode></feMerge></filter></defs><g filter="url(#editing-gradow-filter)"><g transform="translate(217.84113955497742, 104.47000312805176)"><path d="M21.44-7.23L21.44-7.23L21.44-7.23Q18.11-3.78 12.03-3.78L12.03-3.78L12.03-3.78Q4.42-3.78 2.82-9.34L2.82-9.34L2.82-9.34Q2.30-11.01 2.30-12.86L2.30-12.86L2.30-12.86Q2.30-14.72 2.69-16.64L2.69-16.64L5.70-32.64L18.69-33.92L15.17-15.30L15.17-15.30Q15.04-14.46 14.85-13.57L14.85-13.57L14.85-13.57Q14.66-12.67 14.66-11.74L14.66-11.74L14.66-11.74Q14.66-10.82 14.98-10.21L14.98-10.21L14.98-10.21Q15.30-9.60 15.74-9.22L15.74-9.22L15.74-9.22Q16.51-8.70 17.89-8.70L17.89-8.70L17.89-8.70Q19.26-8.70 20.45-10.37L20.45-10.37L20.45-10.37Q21.63-12.03 22.21-14.91L22.21-14.91L25.73-32.64L38.34-33.92L33.54-8.77L33.54-8.77Q31.17 3.52 26.30 8.38L26.30 8.38L26.30 8.38Q23.81 10.88 20.58 11.87L20.58 11.87L20.58 11.87Q17.34 12.86 13.18 12.86L13.18 12.86L13.18 12.86Q6.46 12.86 2.62 10.75L2.62 10.75L2.62 10.75Q-1.22 8.64-1.22 5.12L-1.22 5.12L-1.22 5.12Q-1.22 2.50 0.77 0.99L0.77 0.99L0.77 0.99Q2.75-0.51 5.82-0.51L5.82-0.51L5.82-0.51Q8.51-0.51 10.56 0.64L10.56 0.64L10.56 0.64Q11.78 1.34 12.35 2.24L12.35 2.24L12.35 2.24Q10.88 3.52 10.88 5.63L10.88 5.63L10.88 5.63Q10.88 8.45 13.44 8.45L13.44 8.45L13.44 8.45Q17.66 8.45 20.10-1.28L20.10-1.28L20.10-1.28Q20.80-4.16 21.44-7.23ZM65.60-37.12L65.60-37.12L65.60-37.12Q66.50-38.66 66.50-40.32L66.50-40.32L66.50-40.32Q66.50-43.26 64.70-43.26L64.70-43.26L64.70-43.26Q61.95-43.26 60.80-37.63L60.80-37.63L59.84-32.64L65.66-32.64L65.28-29.76L59.26-29.76L53.50 0L40.58 1.28L46.72-29.76L42.18-29.76L42.75-32.64L47.23-32.64L48.58-37.70L48.58-37.70Q49.73-42.37 54.66-44.54L54.66-44.54L54.66-44.54Q58.24-46.08 64.26-46.08L64.26-46.08L64.26-46.08Q70.27-46.08 72.96-44.54L72.96-44.54L72.96-44.54Q75.65-43.01 75.65-40.96L75.65-40.96L75.65-40.96Q75.65-38.91 74.05-37.63L74.05-37.63L74.05-37.63Q72.45-36.35 70.66-36.35L70.66-36.35L70.66-36.35Q67.14-36.35 65.60-37.12Z" fill="url(#editing-gradow-gradient)"></path></g></g><style>text {
  font-size: 64px;
  font-family: Arial Black;
  dominant-baseline: central;
  text-anchor: middle;
}</style></svg>